<?xml version="1.0" encoding="UTF-8" ?>
<!DOCTYPE svg PUBLIC "-//W3C//DTD SVG 1.1//EN" "http://www.w3.org/Graphics/SVG/1.1/DTD/svg11.dtd">
<svg width="570pt" height="570pt" viewBox="0 0 570 570" version="1.1" xmlns="http://www.w3.org/2000/svg">
<g id="#ffffffff">
</g>
<g id="#010101ff">
<path fill="#010101" opacity="1.00" d=" M 178.42 126.41 C 180.67 125.37 182.16 122.67 184.95 123.07 C 191.94 123.31 199.11 122.17 205.93 124.17 C 209.29 125.02 212.79 124.74 216.24 124.79 C 216.54 125.14 217.13 125.83 217.43 126.18 C 219.59 126.46 221.42 127.59 223.07 128.93 C 223.54 128.50 224.48 127.64 224.95 127.21 C 226.66 131.18 231.21 131.63 234.51 133.70 C 237.02 135.17 239.15 137.71 242.29 137.74 C 242.76 138.86 243.23 139.98 243.71 141.10 C 245.67 142.02 247.52 143.14 249.33 144.33 C 249.48 144.79 249.79 145.72 249.94 146.18 C 250.34 146.37 251.16 146.75 251.56 146.94 C 252.18 148.40 252.83 149.84 253.55 151.25 C 255.80 151.80 257.48 153.17 258.43 155.27 C 260.84 155.58 263.21 156.13 265.55 156.81 C 265.08 157.63 264.62 158.46 264.16 159.29 C 266.70 161.58 268.77 164.34 271.48 166.43 C 271.51 167.00 271.58 168.14 271.61 168.72 C 273.32 168.68 275.02 168.65 276.73 168.68 C 275.60 170.14 274.41 171.56 273.27 173.02 C 274.75 175.02 277.16 176.38 277.93 178.87 C 278.70 181.28 278.80 183.84 279.61 186.24 C 280.03 186.40 280.88 186.73 281.31 186.90 C 283.71 192.77 288.37 197.38 291.93 202.58 C 288.34 205.11 284.48 207.41 281.83 211.00 C 280.04 213.55 276.29 213.09 274.28 215.37 C 272.58 216.72 272.68 219.47 270.29 220.10 C 270.31 220.63 270.34 221.70 270.36 222.24 C 266.99 222.27 264.46 225.38 261.04 224.81 C 257.51 224.25 254.25 225.75 251.53 227.87 C 251.55 228.22 251.58 228.92 251.60 229.28 C 253.67 229.29 255.75 229.32 257.84 229.37 C 257.64 229.77 257.25 230.57 257.05 230.97 C 254.45 232.37 251.57 232.72 248.66 232.73 C 248.59 232.90 248.46 233.26 248.39 233.44 C 251.51 235.76 254.19 239.24 258.48 239.08 C 258.32 239.91 258.17 240.75 258.02 241.59 C 260.44 243.27 262.62 245.26 264.98 247.02 C 267.00 248.58 270.47 248.70 270.74 251.85 C 273.41 253.27 276.35 254.01 279.21 254.92 C 278.49 255.45 277.05 256.52 276.33 257.06 C 277.85 257.27 279.38 257.46 280.91 257.64 C 280.86 258.22 280.76 259.38 280.71 259.96 C 283.23 260.94 286.67 260.86 288.01 263.64 C 288.52 263.60 289.55 263.54 290.07 263.50 C 290.63 263.89 291.74 264.67 292.30 265.06 C 292.40 266.77 292.80 268.43 293.68 269.91 C 293.41 273.89 291.39 277.29 289.32 280.57 C 290.66 284.53 286.77 287.13 285.93 290.69 C 284.79 294.48 284.43 298.57 282.36 302.03 C 282.82 303.30 283.42 304.55 283.65 305.90 C 282.96 307.66 281.15 308.97 281.35 311.02 C 281.67 313.03 279.90 314.17 278.71 315.47 C 281.00 316.86 279.11 318.64 278.19 320.20 C 277.79 321.83 277.14 323.49 277.52 325.20 C 279.73 321.94 281.09 318.22 282.74 314.68 C 288.70 302.11 294.69 289.57 300.83 277.09 C 302.56 274.52 301.24 271.40 300.18 268.87 C 296.57 264.52 292.72 260.36 288.88 256.20 C 287.77 254.62 286.39 253.27 284.97 251.98 C 283.92 249.04 280.62 248.50 278.53 246.58 C 276.74 245.04 275.08 243.37 273.38 241.73 C 274.05 240.87 274.71 240.00 275.38 239.13 C 273.45 238.57 271.50 238.07 269.56 237.57 C 270.10 236.95 271.19 235.69 271.73 235.06 C 270.40 234.64 269.06 234.26 267.72 233.89 C 268.06 233.43 268.75 232.51 269.09 232.05 C 267.25 229.22 264.07 228.49 261.25 227.12 L 261.41 225.61 C 265.54 224.59 270.34 226.73 274.20 224.20 C 281.07 220.19 288.23 216.73 295.33 213.13 C 294.72 212.73 293.51 211.94 292.90 211.54 C 300.62 211.31 307.37 207.10 313.84 203.31 C 311.98 201.28 310.99 198.75 310.04 196.22 C 308.46 191.70 304.33 188.69 302.89 184.09 C 301.48 181.74 301.97 178.85 300.61 176.51 C 297.14 169.64 293.69 162.76 290.32 155.84 C 289.50 154.43 289.55 152.79 289.41 151.22 C 292.14 148.54 294.18 144.26 298.51 144.14 C 298.57 143.62 298.67 142.59 298.73 142.08 C 300.95 140.76 303.37 139.56 304.98 137.46 C 305.52 137.37 306.60 137.19 307.14 137.09 C 307.46 136.72 308.10 135.97 308.42 135.60 C 311.16 134.79 313.77 133.61 316.31 132.29 C 323.07 128.97 330.63 128.08 338.01 127.16 C 341.23 124.92 345.53 125.74 349.09 126.72 C 352.40 127.52 356.77 126.01 359.05 129.23 C 370.62 132.98 380.13 141.03 388.22 149.87 C 390.38 152.54 391.66 155.78 393.62 158.59 C 395.19 159.95 397.19 160.88 398.24 162.78 C 398.70 165.90 401.82 167.84 401.99 171.10 C 402.11 173.67 403.79 175.56 405.08 177.63 C 406.38 184.04 406.37 190.65 406.01 197.16 C 405.22 200.97 403.83 204.67 402.32 208.25 C 400.40 209.57 398.02 209.92 395.89 210.77 C 395.77 211.55 395.53 213.12 395.41 213.90 C 396.10 214.04 397.47 214.32 398.15 214.46 C 397.04 214.91 395.89 215.27 394.82 215.80 C 392.99 218.84 391.77 222.19 390.50 225.49 C 391.91 225.54 393.32 225.58 394.74 225.61 L 394.85 227.27 C 393.02 228.52 390.85 228.77 388.71 228.88 C 388.72 229.21 388.76 229.86 388.78 230.19 C 389.35 230.26 390.49 230.41 391.06 230.49 C 390.85 231.67 390.66 232.85 390.49 234.04 C 388.27 234.11 386.04 234.29 384.02 235.26 C 385.48 235.95 386.96 236.45 388.52 236.94 C 386.64 238.53 384.21 238.63 381.91 238.98 C 382.67 239.79 383.60 240.40 384.56 240.98 C 384.53 241.28 384.47 241.88 384.44 242.18 C 381.44 245.12 379.11 249.69 374.33 249.69 C 375.01 250.48 375.70 251.26 376.40 252.05 C 372.10 252.98 369.18 256.14 366.75 259.55 C 355.05 271.29 342.97 282.72 329.80 292.82 C 327.49 294.62 325.03 296.31 323.25 298.68 C 321.67 299.29 320.17 300.10 318.93 301.27 C 320.99 301.42 323.07 301.42 325.15 301.50 C 323.04 305.19 318.42 305.69 315.68 308.69 C 313.45 310.67 309.82 311.46 309.03 314.71 C 306.03 314.76 303.03 314.79 300.06 315.14 C 301.50 316.34 303.37 316.57 305.14 316.99 C 304.47 317.37 303.12 318.15 302.45 318.53 C 302.78 318.90 303.45 319.65 303.79 320.02 C 300.91 321.05 298.05 322.14 295.03 322.70 C 293.12 323.00 292.18 324.95 290.92 326.20 C 290.42 326.32 289.43 326.57 288.93 326.70 C 288.35 327.54 287.77 328.39 287.20 329.24 C 282.33 329.80 277.49 330.90 273.83 334.42 C 274.03 333.48 274.43 331.59 274.63 330.65 C 272.88 331.29 272.56 333.17 272.00 334.72 C 269.81 335.20 267.04 335.67 265.52 333.52 C 263.16 330.26 258.66 329.74 256.54 326.27 C 254.09 323.80 251.67 321.20 248.80 319.23 C 245.34 317.86 242.73 315.20 239.97 312.82 C 235.18 313.61 231.65 309.34 228.63 306.26 C 228.69 305.65 228.82 304.42 228.88 303.81 C 225.40 301.11 222.14 298.00 218.09 296.16 C 217.08 294.79 215.96 293.51 214.67 292.41 C 205.20 284.11 195.63 275.93 186.26 267.52 C 184.99 266.30 183.34 265.63 181.67 265.20 C 181.59 264.64 181.44 263.52 181.37 262.96 C 178.03 260.98 174.47 258.72 172.93 254.99 C 167.39 251.19 164.33 244.91 159.87 240.03 C 155.72 234.52 151.45 228.77 149.21 222.22 C 151.19 220.89 152.00 218.99 151.68 216.63 C 149.77 215.43 147.17 215.73 145.53 214.12 C 146.67 213.10 148.31 212.99 149.70 212.46 C 148.85 209.55 148.44 206.04 144.89 205.32 C 145.73 204.98 146.57 204.64 147.41 204.30 C 146.69 196.53 144.27 188.75 145.71 180.93 C 146.54 173.30 148.64 165.81 152.19 158.99 C 152.28 158.47 152.46 157.43 152.55 156.90 C 155.52 154.38 156.98 150.88 158.51 147.44 C 157.09 147.38 155.67 147.31 154.26 147.24 C 154.15 145.50 154.33 143.67 155.65 142.39 C 159.07 138.13 163.62 134.99 167.81 131.55 C 170.88 128.96 175.04 128.46 178.42 126.41 Z" />
<path fill="#010101" opacity="1.00" d=" M 71.16 343.89 C 72.92 342.05 74.95 340.50 77.25 339.41 C 78.67 340.36 80.01 341.42 78.52 343.19 C 82.38 350.34 86.47 357.36 90.26 364.55 C 95.27 358.75 99.27 352.16 104.17 346.27 C 106.00 344.01 108.73 342.80 111.08 341.18 C 112.89 342.64 114.87 343.95 116.33 345.79 C 116.16 350.83 111.00 353.43 108.39 357.23 C 104.06 363.28 98.92 368.69 94.25 374.46 C 96.94 380.27 101.71 384.91 104.03 390.93 C 105.68 394.87 110.96 398.31 108.12 403.04 C 105.87 404.33 104.53 408.35 101.59 407.47 C 102.00 404.90 100.77 402.72 99.39 400.68 C 97.82 399.93 96.12 399.36 94.78 398.23 C 92.76 395.62 93.66 392.05 93.70 389.02 C 90.92 385.71 87.67 382.71 83.89 380.61 C 82.38 381.08 82.52 383.12 81.86 384.27 C 80.46 383.78 79.75 382.51 80.46 381.11 C 81.16 379.12 82.16 377.27 83.06 375.38 C 80.36 369.32 78.25 362.99 75.17 357.10 C 73.89 352.68 72.53 348.28 71.16 343.89 Z" />
<path fill="#010101" opacity="1.00" d=" M 122.00 343.87 C 123.76 342.24 125.52 340.32 127.95 339.76 C 129.16 339.60 129.57 340.88 130.19 341.64 C 130.08 342.21 129.85 343.35 129.74 343.92 C 133.53 350.88 137.26 357.88 141.23 364.74 C 145.32 359.25 149.47 353.80 153.36 348.16 C 155.42 344.98 158.69 342.90 162.03 341.27 C 163.91 342.64 165.60 344.26 167.27 345.89 C 170.68 345.52 174.15 343.90 177.56 345.11 C 181.11 346.18 185.10 347.03 188.60 345.28 C 193.23 344.04 198.35 342.79 203.03 344.46 C 205.81 345.25 206.46 348.75 209.10 349.72 C 211.68 347.82 214.39 345.69 217.83 346.14 C 218.99 347.53 219.29 350.33 221.62 350.03 C 230.47 350.26 239.35 349.80 248.19 350.50 C 244.96 353.70 239.71 351.04 235.98 353.33 C 241.33 354.23 246.91 354.49 251.92 356.77 C 246.38 358.39 240.44 357.04 234.95 358.92 C 231.04 360.31 226.82 359.31 222.82 360.26 C 222.60 364.09 222.85 367.93 222.93 371.76 C 222.21 371.43 220.78 370.79 220.06 370.46 C 220.14 372.38 219.83 374.40 220.50 376.25 C 221.55 377.53 222.87 378.54 224.08 379.67 C 224.46 377.18 227.02 377.55 228.91 377.55 C 233.18 377.75 237.45 377.66 241.72 377.64 C 241.73 378.13 241.74 379.10 241.75 379.59 C 243.83 379.74 246.12 379.37 247.89 380.76 C 247.53 381.58 246.81 383.21 246.45 384.03 C 247.36 384.11 249.17 384.28 250.08 384.36 C 248.28 386.00 245.01 385.54 245.44 382.48 C 242.71 381.89 242.37 384.18 241.95 386.21 C 240.13 388.28 239.94 383.39 237.98 384.36 C 234.06 385.35 230.07 386.18 226.31 387.70 C 226.77 388.52 227.34 389.28 227.87 390.08 C 227.46 392.44 226.97 394.79 226.57 397.16 C 225.53 396.23 224.47 395.32 223.41 394.43 C 222.71 397.33 223.37 400.29 223.60 403.21 C 229.88 398.80 237.79 398.48 245.09 397.18 C 248.29 396.50 251.56 396.29 254.82 396.47 C 254.84 399.92 251.09 399.70 248.77 400.91 C 250.61 402.82 253.38 402.45 255.77 402.87 C 255.43 403.22 254.73 403.91 254.39 404.26 C 247.06 406.67 239.43 408.18 232.09 410.59 C 228.15 412.93 223.98 414.85 219.81 416.72 C 218.72 416.19 217.62 415.68 216.51 415.18 C 213.89 406.03 214.85 396.31 213.13 387.00 C 212.32 385.90 211.36 384.93 210.43 383.94 C 210.74 383.73 211.35 383.31 211.66 383.10 C 210.81 381.43 209.72 379.88 209.07 378.12 C 209.79 377.42 210.53 376.74 211.29 376.09 C 209.77 370.59 212.18 363.03 206.61 359.39 C 205.16 358.29 205.98 356.20 205.68 354.67 C 204.31 354.23 202.94 353.78 201.58 353.32 C 201.90 352.77 202.54 351.68 202.86 351.14 C 199.78 351.82 196.62 351.94 193.48 352.05 C 192.67 357.73 192.38 363.45 192.17 369.18 C 191.37 373.40 191.59 377.73 190.86 381.96 C 189.78 390.04 190.59 398.19 190.64 406.29 C 189.46 405.13 187.55 404.41 187.27 402.59 C 186.40 397.77 184.79 393.07 184.48 388.16 C 183.86 388.23 182.61 388.36 181.99 388.42 C 180.40 384.10 180.94 379.48 181.02 374.99 C 180.93 368.11 183.24 361.31 182.02 354.43 C 179.02 355.22 176.18 356.80 173.01 356.73 C 172.43 355.78 171.85 354.85 171.25 353.93 C 169.18 354.69 167.11 355.41 165.03 356.12 C 164.10 355.34 163.17 354.56 162.23 353.79 C 156.27 360.52 150.83 367.70 144.89 374.45 C 147.96 380.14 152.44 385.00 154.87 391.04 C 156.20 394.64 160.59 397.32 159.46 401.59 C 159.38 403.16 157.95 403.91 156.89 404.82 C 155.91 405.93 154.93 407.03 153.93 408.11 C 153.57 407.87 152.84 407.37 152.48 407.13 C 153.46 403.44 150.40 400.77 147.39 399.39 C 143.38 397.59 144.01 392.54 144.56 388.98 C 141.44 385.59 138.04 382.38 133.86 380.34 C 133.61 381.78 133.20 385.29 131.01 383.28 C 131.13 380.32 133.31 377.94 133.62 375.07 C 131.72 370.43 129.94 365.73 127.99 361.11 C 124.80 355.84 123.74 349.69 122.00 343.87 Z" />
<path fill="#010101" opacity="1.00" d=" M 20.27 343.93 C 22.17 342.00 24.27 340.04 27.07 339.66 C 28.70 341.11 27.67 343.51 28.78 345.24 C 32.08 351.31 35.56 357.28 38.78 363.39 C 39.05 363.69 39.58 364.30 39.85 364.60 C 43.82 358.73 48.25 353.20 52.35 347.43 C 54.24 344.66 57.29 343.11 60.00 341.30 C 63.15 342.41 65.74 345.48 64.52 348.97 C 62.36 353.08 58.28 355.73 55.71 359.56 C 52.04 364.96 47.38 369.56 43.16 374.52 C 46.62 380.53 51.40 385.75 53.90 392.29 C 56.03 395.52 59.58 399.20 57.09 403.25 C 54.89 404.27 53.59 408.90 50.82 407.22 C 51.13 404.70 49.91 402.59 48.54 400.60 C 46.59 399.65 44.00 399.11 43.11 396.88 C 42.08 394.40 42.38 391.60 42.90 389.03 C 40.46 386.32 37.89 383.74 34.87 381.67 C 33.90 381.36 32.93 381.05 31.97 380.75 C 31.83 381.60 31.55 383.28 31.41 384.12 C 30.66 383.77 29.92 383.39 29.19 382.99 C 29.57 379.68 33.05 376.76 31.40 373.38 C 29.09 368.23 27.52 362.75 24.64 357.86 C 23.07 353.27 21.25 348.70 20.27 343.93 Z" />
<path fill="#010101" opacity="1.00" d=" M 317.93 346.21 C 321.44 346.20 324.59 344.35 327.96 343.64 C 332.47 343.40 337.03 343.13 341.54 343.57 C 341.48 344.29 341.37 345.72 341.31 346.44 C 342.83 346.64 344.35 346.87 345.87 347.13 C 344.49 348.31 342.60 348.14 340.94 348.47 C 341.77 348.87 343.44 349.68 344.27 350.09 C 343.34 350.80 342.55 351.81 341.56 352.40 C 341.90 353.24 342.59 354.91 342.93 355.75 C 340.66 354.74 338.24 354.12 335.89 353.35 C 336.14 352.79 336.63 351.67 336.87 351.12 C 333.78 351.79 330.61 351.81 327.46 351.85 C 327.18 357.57 326.41 363.26 326.26 369.00 C 325.04 381.22 323.22 393.59 325.32 405.84 C 324.12 405.29 322.92 404.74 321.72 404.20 C 320.95 399.76 320.01 395.36 318.90 391.00 C 318.81 389.78 318.73 388.57 318.66 387.37 C 318.17 387.73 317.19 388.46 316.70 388.82 C 314.59 385.22 315.16 380.99 315.16 377.02 C 314.96 369.38 316.98 361.88 316.49 354.22 C 313.65 355.05 310.92 356.25 308.03 356.91 C 306.96 356.03 306.18 354.81 304.98 354.10 C 302.50 354.90 300.07 356.07 297.38 355.90 C 296.01 362.46 296.63 369.25 295.28 375.82 C 294.85 376.36 293.99 377.45 293.56 377.99 C 293.11 382.62 293.42 387.29 292.85 391.91 C 292.56 397.60 291.59 403.29 292.10 408.99 C 290.58 408.82 288.41 409.31 287.60 407.61 C 287.03 405.08 287.32 402.46 287.20 399.90 C 286.47 395.95 284.48 392.44 283.33 388.64 C 280.98 385.95 277.66 384.32 275.42 381.53 C 274.00 379.36 273.09 376.90 271.61 374.77 C 271.36 378.93 269.76 382.74 267.83 386.37 C 268.32 391.67 268.33 397.02 268.46 402.35 C 267.19 403.48 265.90 404.59 264.59 405.67 C 261.12 403.08 260.41 398.68 260.81 394.62 C 260.50 390.92 263.46 387.77 262.70 383.95 C 263.56 377.21 259.83 370.55 262.19 363.96 C 263.73 359.26 261.66 354.05 263.77 349.51 C 264.89 348.28 266.65 348.01 268.11 347.35 C 268.63 347.75 269.65 348.54 270.16 348.93 C 270.95 351.93 271.24 355.21 273.23 357.73 C 278.33 366.02 281.81 375.27 287.01 383.46 C 287.70 379.84 288.25 376.18 289.38 372.66 C 288.72 371.69 288.07 370.75 287.39 369.81 C 287.57 363.55 286.72 356.99 288.95 351.01 C 290.49 347.85 294.05 348.34 296.95 348.53 C 300.54 346.12 304.71 344.74 309.04 344.59 C 311.99 345.15 314.90 346.07 317.93 346.21 Z" />
<path fill="#010101" opacity="1.00" d=" M 348.19 345.36 C 350.46 345.64 353.25 345.30 355.04 346.97 C 356.26 349.33 357.46 351.76 359.58 353.48 C 359.64 354.69 359.70 355.90 359.76 357.12 C 362.36 362.84 365.77 368.21 366.76 374.52 C 367.38 374.43 368.63 374.26 369.25 374.17 C 369.34 376.36 369.42 378.56 369.63 380.75 C 370.65 382.17 371.47 383.72 372.33 385.24 C 374.35 384.79 377.20 383.39 378.45 385.95 C 376.51 386.20 374.55 386.28 372.65 386.72 C 375.51 396.42 380.20 405.56 382.53 415.42 C 381.65 416.74 380.19 417.52 379.06 415.95 C 374.00 410.17 372.06 402.46 369.46 395.39 C 368.51 392.48 365.96 390.51 364.79 387.70 C 361.46 388.06 358.02 387.85 354.83 389.01 C 356.78 393.85 357.53 399.62 355.25 404.47 C 354.23 407.72 355.00 411.29 353.80 414.53 C 351.89 419.77 353.84 425.32 352.88 430.66 C 352.31 430.74 351.15 430.89 350.57 430.97 C 349.55 427.54 347.47 424.50 346.85 420.95 C 346.00 414.30 345.17 407.59 346.32 400.93 C 344.92 400.58 344.22 399.43 343.64 398.24 C 345.22 396.79 346.03 394.79 346.46 392.73 C 345.61 392.79 343.92 392.92 343.07 392.99 C 343.92 391.99 344.77 390.99 345.63 390.01 C 344.32 388.00 342.85 386.11 341.34 384.26 C 342.87 383.90 344.43 383.64 346.00 383.41 C 347.13 376.93 348.54 370.40 348.34 363.78 C 348.11 363.30 347.66 362.34 347.43 361.86 C 349.15 360.33 349.97 358.19 350.55 356.03 C 348.83 352.91 346.21 348.79 348.19 345.36 M 356.78 372.28 C 355.25 375.47 354.11 378.83 352.76 382.10 C 353.45 382.48 354.14 382.86 354.85 383.24 C 357.39 382.48 360.00 381.92 362.61 381.36 C 360.56 378.47 359.16 375.21 357.49 372.11 C 357.31 372.16 356.96 372.24 356.78 372.28 Z" />
<path fill="#010101" opacity="1.00" d=" M 513.61 349.22 C 515.12 348.53 516.63 347.87 518.16 347.21 C 520.19 348.84 520.81 351.34 521.27 353.79 C 521.66 356.25 523.63 357.95 524.71 360.09 C 528.85 368.00 532.65 376.09 537.00 383.89 C 537.29 380.18 538.34 376.59 538.82 372.91 C 538.95 371.65 537.83 370.81 537.29 369.81 C 537.26 364.14 536.91 358.40 538.26 352.84 C 538.66 350.00 541.65 347.32 544.59 348.50 C 546.43 349.96 547.58 352.08 548.98 353.94 C 548.30 354.98 547.58 356.00 547.01 357.11 C 545.62 364.00 547.38 371.63 543.83 378.03 C 543.22 382.99 543.03 387.99 542.61 392.97 C 543.35 398.25 541.86 403.45 541.69 408.72 C 540.00 409.67 537.63 408.80 537.31 406.82 C 537.07 403.90 537.26 400.94 536.57 398.07 C 536.17 394.72 533.79 392.05 533.34 388.70 C 531.14 385.95 527.72 384.55 525.50 381.83 C 524.07 379.59 523.05 377.13 521.53 374.95 C 521.14 378.50 520.02 381.88 518.43 385.07 C 517.76 390.75 518.56 396.52 518.37 402.24 C 517.43 403.86 515.52 404.55 514.07 405.62 C 512.74 403.89 511.25 402.16 510.83 399.96 C 511.87 391.37 513.34 382.74 512.13 374.08 C 511.70 374.26 510.85 374.63 510.43 374.81 C 512.16 372.86 511.05 370.27 511.24 367.95 C 511.49 365.24 512.61 362.68 512.70 359.95 C 512.93 356.36 512.08 352.62 513.61 349.22 Z" />
<path fill="#010101" opacity="1.00" d=" M 439.02 353.97 C 439.93 351.71 443.02 352.26 444.50 353.58 C 446.75 356.57 446.12 360.51 445.71 363.98 C 444.45 375.28 445.73 386.61 445.14 397.94 C 445.32 404.70 444.20 411.39 443.99 418.13 C 443.89 419.91 442.66 421.33 441.90 422.87 C 441.37 422.81 440.31 422.67 439.77 422.60 C 436.39 414.44 440.18 405.32 436.87 397.19 C 436.92 395.16 436.83 393.14 434.30 393.05 C 434.57 392.85 435.12 392.46 435.39 392.26 C 435.98 390.17 436.55 388.06 436.90 385.92 C 436.59 385.63 435.95 385.06 435.64 384.78 C 435.20 382.05 434.53 379.35 434.68 376.58 C 434.54 376.17 434.24 375.34 434.10 374.93 C 434.57 371.94 434.51 368.91 434.78 365.91 C 435.71 361.78 437.19 357.78 439.02 353.97 Z" />
<path fill="#010101" opacity="1.00" d=" M 484.87 355.41 C 488.35 354.80 491.58 356.34 493.40 359.33 C 493.81 359.47 494.62 359.75 495.03 359.90 C 495.38 361.66 496.25 363.23 497.67 364.36 C 500.24 362.57 502.15 365.47 503.39 367.45 C 504.55 369.12 504.17 371.24 504.34 373.16 C 504.89 373.82 505.46 374.48 506.03 375.14 C 504.99 377.87 503.98 380.65 502.26 383.04 C 504.77 387.18 502.50 391.80 500.75 395.74 C 499.72 397.68 500.45 399.91 500.47 401.98 C 498.61 402.48 496.79 403.06 494.97 403.65 C 494.42 404.26 493.33 405.49 492.78 406.11 C 492.44 404.71 492.17 403.26 490.62 402.85 C 489.66 403.75 488.71 404.66 487.75 405.56 C 484.34 406.22 480.98 408.87 477.44 407.35 C 474.64 406.17 471.53 406.10 468.77 404.80 C 468.62 404.31 468.33 403.34 468.19 402.86 C 467.76 402.82 466.90 402.73 466.47 402.69 C 464.16 400.12 461.49 397.75 458.35 396.26 L 459.41 394.07 C 454.84 394.05 456.95 399.27 456.52 402.01 C 455.88 406.82 457.35 411.82 456.31 416.48 C 455.70 416.44 454.47 416.37 453.86 416.33 C 456.28 410.63 452.09 404.71 454.17 398.87 C 453.46 396.96 451.76 395.02 452.90 392.93 C 454.46 389.68 452.84 385.63 455.87 383.00 C 455.38 382.75 454.40 382.25 453.91 382.00 C 453.53 378.99 453.53 375.92 453.87 372.91 C 454.98 369.81 457.54 367.60 459.72 365.25 C 459.29 363.43 459.17 361.57 459.91 359.83 C 460.60 360.83 461.28 361.85 461.96 362.87 C 465.99 360.25 470.73 359.08 474.84 356.57 C 478.01 354.53 482.30 358.84 484.87 355.41 M 485.56 361.28 C 485.42 363.63 485.37 366.00 484.98 368.33 C 486.84 370.19 489.31 371.18 491.47 372.62 C 493.65 374.37 495.77 376.22 498.06 377.87 C 497.60 376.62 497.10 375.39 496.58 374.18 C 496.84 373.48 497.10 372.79 497.37 372.11 C 496.69 372.23 495.34 372.49 494.67 372.61 C 491.88 369.78 489.85 366.30 488.20 362.71 C 487.31 362.23 486.44 361.75 485.56 361.28 M 472.23 373.02 C 469.98 375.54 467.00 378.25 467.46 381.97 C 467.67 385.68 466.44 389.88 469.05 393.05 C 473.76 397.43 480.74 399.00 486.81 396.58 C 486.56 397.41 486.05 399.08 485.80 399.91 C 490.04 398.85 495.54 397.05 496.46 392.11 C 496.89 390.78 497.69 389.63 498.43 388.47 C 498.50 386.90 498.54 385.35 498.56 383.80 C 497.78 383.03 497.01 382.26 496.26 381.49 C 495.64 381.46 494.42 381.40 493.80 381.37 C 492.22 374.63 485.40 371.86 479.91 368.95 C 476.58 367.95 474.28 370.96 472.23 373.02 Z" />
<path fill="#010101" opacity="1.00" d=" M 401.93 357.84 C 406.80 356.50 412.04 358.11 416.05 360.96 C 418.43 362.29 417.28 365.18 417.26 367.34 C 418.14 367.67 419.03 368.01 419.92 368.35 C 418.91 369.11 417.91 369.89 416.91 370.67 C 416.79 372.77 415.36 374.62 413.06 373.87 C 407.09 372.84 401.07 374.70 396.08 377.92 C 394.39 379.61 393.58 382.25 391.11 383.05 C 391.10 390.65 395.78 398.14 402.86 401.05 C 407.27 403.23 412.35 405.50 417.28 403.59 C 418.76 403.44 419.32 401.94 420.09 400.92 C 421.40 400.49 422.48 399.80 422.63 398.31 C 425.01 398.43 427.40 398.58 429.59 399.63 C 430.34 404.44 427.37 408.79 423.57 411.41 C 419.71 412.80 415.88 415.79 411.60 414.23 C 406.03 413.99 400.70 412.47 395.71 410.01 C 394.78 410.44 393.86 410.89 392.95 411.35 C 389.86 409.64 386.77 407.35 385.66 403.85 C 383.97 398.87 382.35 393.85 380.81 388.82 C 380.21 388.04 379.56 387.31 378.85 386.64 C 379.48 386.53 380.76 386.31 381.40 386.20 C 382.79 380.71 384.14 375.13 384.56 369.48 C 387.45 362.38 395.08 359.56 401.93 357.84 M 395.00 367.94 C 391.45 370.85 388.88 376.21 390.59 380.75 C 391.36 380.31 392.06 379.77 392.78 379.27 C 392.37 378.72 391.54 377.61 391.13 377.06 C 391.99 373.14 395.60 370.80 399.54 371.04 C 401.79 369.99 404.04 368.91 406.36 367.99 C 406.45 367.63 406.62 366.91 406.71 366.55 C 402.76 366.95 398.37 365.03 395.00 367.94 Z" />
<path fill="#010101" opacity="1.00" d=" M 80.83 388.09 C 82.07 386.22 83.44 384.43 85.19 383.01 C 84.36 386.90 80.63 389.78 81.60 394.09 C 80.06 395.79 78.86 398.21 76.35 398.56 C 76.51 399.14 76.83 400.28 76.99 400.86 C 73.99 399.64 70.67 395.45 72.01 392.03 C 74.69 390.32 76.87 387.98 79.48 386.20 C 79.82 386.67 80.49 387.62 80.83 388.09 Z" />
<path fill="#010101" opacity="1.00" d=" M 131.62 387.74 C 132.99 386.11 134.40 384.50 135.97 383.07 C 135.82 386.08 132.86 387.99 132.67 390.97 C 132.55 394.12 130.63 398.02 127.23 398.52 C 127.39 399.15 127.73 400.42 127.90 401.06 C 124.86 399.71 121.90 396.67 122.41 393.10 C 122.43 391.69 123.86 391.25 124.83 390.60 C 126.88 389.42 128.41 387.57 130.16 386.02 C 130.53 386.45 131.26 387.31 131.62 387.74 Z" />
<path fill="#010101" opacity="1.00" d=" M 30.58 386.97 C 31.70 385.61 32.81 384.09 34.74 384.04 C 32.66 387.03 30.30 390.19 30.78 394.06 C 29.06 395.71 28.06 398.96 25.09 398.45 C 25.50 399.01 26.32 400.14 26.73 400.70 C 23.51 400.90 22.00 397.49 20.92 395.00 C 20.08 393.68 21.32 392.36 21.72 391.13 C 25.27 390.60 26.61 385.11 30.58 386.97 Z" />
</g>
</svg>
