<?xml version="1.0" encoding="UTF-8" standalone="no"?>
<!-- Created with Inkscape (http://www.inkscape.org/) -->

<svg
   width="244.15543mm"
   height="25.300907mm"
   viewBox="0 0 244.15543 25.300907"
   version="1.1"
   id="svg5"
   inkscape:version="1.1.2 (b8e25be833, 2022-02-05)"
   sodipodi:docname="dwd.svg"
   xmlns:inkscape="http://www.inkscape.org/namespaces/inkscape"
   xmlns:sodipodi="http://sodipodi.sourceforge.net/DTD/sodipodi-0.dtd"
   xmlns="http://www.w3.org/2000/svg"
   xmlns:svg="http://www.w3.org/2000/svg">
  <sodipodi:namedview
     id="namedview7"
     pagecolor="#ffffff"
     bordercolor="#666666"
     borderopacity="1.0"
     inkscape:pageshadow="2"
     inkscape:pageopacity="0.0"
     inkscape:pagecheckerboard="0"
     inkscape:document-units="mm"
     showgrid="false"
     inkscape:zoom="0.64052329"
     inkscape:cx="341.12733"
     inkscape:cy="51.520375"
     inkscape:window-width="1920"
     inkscape:window-height="1017"
     inkscape:window-x="-8"
     inkscape:window-y="-8"
     inkscape:window-maximized="1"
     inkscape:current-layer="layer1" />
  <defs
     id="defs2" />
  <g
     inkscape:label="Layer 1"
     inkscape:groupmode="layer"
     id="layer1"
     transform="translate(-15.062761,-134.81686)">
    <g
       id="g832"
       transform="matrix(1.9531347,0,0,1.9531347,15.062761,108.40462)">
      <path
         d="M 0,24.771 C 0.583,23.882 1.339,23.232 2.294,22.709 3.516,22.039 4.622,21.157 5.876,20.3 5.237,19.971 4.695,19.624 4.105,19.402 3.173,19.051 2.211,18.779 1.258,18.485 0.844,18.357 0.722,17.919 1.068,17.59 c 0.323,-0.307 0.688,-0.579 1.068,-0.811 0.156,-0.095 0.439,-0.122 0.6,-0.046 0.781,0.369 1.565,0.744 2.302,1.192 0.72,0.438 1.365,1 2.087,1.435 0.219,0.132 0.627,0.115 0.874,0.002 0.537,-0.244 1.008,-0.634 1.54,-0.893 1.838,-0.893 3.688,-1.761 5.541,-2.621 0.194,-0.09 0.442,-0.063 0.665,-0.09 0.024,0.083 0.049,0.166 0.073,0.25 -0.518,0.352 -1.036,0.703 -1.622,1.101 0.214,0.156 0.385,0.299 0.572,0.414 1.046,0.644 2.09,1.292 3.153,1.907 0.142,0.082 0.412,0.047 0.576,-0.031 1.341,-0.638 2.663,-1.317 4.008,-1.947 1.328,-0.623 2.673,-1.212 4.02,-1.793 0.261,-0.113 0.57,-0.116 1.015,-0.199 -0.226,0.288 -0.347,0.443 -0.468,0.597 -0.059,0.065 -0.119,0.129 -0.178,0.194 0.266,0.176 0.544,0.336 0.797,0.53 0.742,0.571 1.483,1.146 2.207,1.74 0.396,0.325 0.781,0.255 1.188,0.06 2.058,-0.985 4.099,-2.008 6.182,-2.937 1.103,-0.492 2.276,-0.829 3.426,-1.211 0.179,-0.059 0.402,0.014 0.655,0.167 -0.169,0.133 -0.318,0.315 -0.509,0.392 -1.598,0.64 -3.239,1.185 -4.796,1.91 -1.383,0.644 -2.677,1.479 -4.007,2.236 -0.315,0.179 -0.347,0.423 -0.076,0.671 0.596,0.545 1.234,1.05 1.791,1.632 0.567,0.592 1.057,1.257 1.577,1.886 -0.231,0.167 -0.553,0.042 -0.887,-0.207 -0.817,-0.609 -1.607,-1.268 -2.482,-1.78 -0.631,-0.37 -1.365,-0.61 -2.084,-0.759 -0.297,-0.061 -0.691,0.24 -1.011,0.428 -0.254,0.149 -0.478,0.36 -0.69,0.569 -1.342,1.328 -2.684,2.656 -4.012,3.998 -0.794,0.803 -0.85,0.803 -1.319,-0.23 -0.418,-0.921 -0.364,-1.112 0.346,-1.865 1.158,-1.229 2.698,-1.895 4.074,-2.802 0.492,-0.324 1.029,-0.581 1.671,-0.939 -1.533,-0.62 -2.92,-1.18 -4.357,-1.761 0.063,-0.174 0.161,-0.442 0.28,-0.77 -0.165,0.033 -0.299,0.027 -0.396,0.084 -1.551,0.895 -3.093,1.804 -4.647,2.694 -0.467,0.268 -0.541,0.486 -0.131,0.915 0.822,0.86 1.597,1.765 2.354,2.683 0.154,0.187 0.139,0.514 0.202,0.777 -0.265,-0.032 -0.584,0.021 -0.786,-0.109 -1.092,-0.701 -2.163,-1.436 -3.226,-2.182 -0.532,-0.373 -0.911,-0.272 -1.397,0.153 -1.12,0.981 -2.323,1.868 -3.468,2.821 -0.304,0.253 -0.526,0.607 -0.777,0.921 -0.24,0.3 -0.442,0.302 -0.62,-0.054 C 11.852,25.683 11.765,25.431 11.61,25.233 11.186,24.689 10.971,24.156 11.609,23.58 11.138,23.27 10.708,23.009 10.304,22.714 9.896,22.416 9.539,22.041 9.111,21.779 8.854,21.622 8.504,21.613 8.193,21.546 8.011,21.507 7.808,21.526 7.645,21.453 7.057,21.188 6.548,21.266 6.035,21.661 5.191,22.311 4.251,22.851 3.475,23.571 2.69,24.304 2.054,25.2 1.344,26.018 1.197,26.187 1.015,26.325 0.85,26.477 0.712,26.305 0.564,26.14 0.437,25.961 0.282,25.741 0.145,25.51 0,25.285 0,25.114 0,24.942 0,24.771 Z m 13.394,-7.12 c -0.054,-0.055 -0.108,-0.109 -0.163,-0.164 -0.583,0.294 -1.171,0.582 -1.75,0.885 -0.808,0.423 -1.592,0.898 -2.421,1.275 -0.521,0.237 -0.644,0.48 -0.195,0.84 1.089,0.875 2.206,1.714 3.251,2.521 1.411,-0.792 2.803,-1.573 4.195,-2.354 0.002,-0.07 0.004,-0.139 0.006,-0.209 -1.033,-0.424 -2.066,-0.85 -3.1,-1.27 -0.177,-0.072 -0.363,-0.12 -0.545,-0.179 0.076,-0.188 0.134,-0.385 0.232,-0.561 0.15,-0.269 0.326,-0.523 0.49,-0.784 z"
         id="path824" />
      <path
         d="m 111.325,21.984 c -0.725,0.332 -1.436,0.698 -2.177,0.989 -0.849,0.334 -1.707,0.68 -2.592,0.876 -0.992,0.22 -2.019,0.294 -3.033,0.404 -0.626,0.068 -1.258,0.083 -1.887,0.128 -0.974,0.07 -2.111,-0.99 -2.042,-1.966 0.019,-0.263 0.186,-0.621 0.397,-0.745 0.682,-0.402 0.698,-1.054 0.829,-1.788 -2.013,1.684 -3.418,3.954 -5.873,4.964 -0.043,-0.052 -0.089,-0.082 -0.089,-0.112 -0.02,-1.01 -0.033,-1.074 -1.011,-0.855 -0.984,0.22 -1.934,0.588 -2.902,0.88 -0.199,0.06 -0.422,0.127 -0.619,0.096 -1.317,-0.206 -2.024,-0.649 -2.282,-2.063 -0.116,-0.635 -0.443,-1.1 -1.051,-1.21 -0.672,-0.122 -1.704,0.517 -1.886,1.063 -0.269,0.805 -0.489,1.628 -0.793,2.42 -0.119,0.311 -0.409,0.556 -0.7,0.932 -0.778,-1.426 0.033,-2.621 0.155,-4.024 -1.372,0.286 -2.745,0.421 -4.003,0.876 -1.217,0.44 -2.315,1.207 -3.465,1.831 -0.033,-0.051 -0.067,-0.102 -0.1,-0.153 0.351,-0.298 0.683,-0.623 1.058,-0.888 0.58,-0.409 0.932,-0.92 0.904,-1.651 -0.022,-0.6 0.257,-0.838 0.863,-0.81 0.915,0.041 1.695,-0.292 2.378,-0.918 0.436,-0.399 0.973,-0.688 1.422,-1.075 0.481,-0.415 0.898,-0.904 1.369,-1.332 0.462,-0.419 0.959,-0.799 1.435,-1.203 0.193,-0.164 0.37,-0.348 0.555,-0.523 -0.034,-0.062 -0.068,-0.124 -0.103,-0.186 -0.178,-0.018 -0.357,-0.059 -0.533,-0.051 -0.998,0.046 -2.001,0.046 -2.932,0.513 -0.257,0.129 -0.575,0.15 -0.87,0.19 -0.703,0.096 -1.409,0.175 -2.155,0.265 0.063,0.919 -0.507,1.289 -1.095,1.762 -1.262,1.015 -2.415,2.166 -3.61,3.265 -0.896,0.825 -1.78,1.664 -2.688,2.475 -0.257,0.23 -0.58,0.387 -0.873,0.577 -0.048,-0.041 -0.096,-0.082 -0.144,-0.123 0.071,-0.177 0.102,-0.386 0.218,-0.525 1.75,-2.094 3.513,-4.177 5.266,-6.269 0.08,-0.095 0.161,-0.313 0.118,-0.361 -0.094,-0.104 -0.295,-0.219 -0.407,-0.183 -1.869,0.592 -3.955,0.674 -5.45,2.169 -0.892,0.892 -1.703,1.864 -2.567,2.784 -0.521,0.555 -1.077,1.078 -1.61,1.622 -0.265,0.27 -0.515,0.554 -0.819,0.882 -0.93,-0.937 -1.99,-1.715 -2.17,-3.14 -0.067,-0.526 -0.207,-1.045 -0.338,-1.561 -0.055,-0.216 -0.173,-0.415 -0.31,-0.734 -0.514,0.497 -0.945,0.928 -1.391,1.343 -1.61,1.499 -3.219,2.998 -4.845,4.48 -0.19,0.173 -0.481,0.236 -0.799,0.217 0.367,-0.573 0.735,-1.147 1.102,-1.72 -0.053,-0.062 -0.106,-0.124 -0.159,-0.186 -0.838,0.066 -1.687,0.064 -2.51,0.211 -1.675,0.299 -3.338,0.667 -5,1.031 -0.932,0.204 -1.844,0.512 -2.782,0.677 -0.839,0.148 -1.625,-0.935 -1.271,-1.713 0.074,-0.162 0.367,-0.323 0.555,-0.318 0.716,0.019 1.263,-0.13 1.621,-0.853 0.15,-0.303 0.636,-0.421 0.896,-0.692 0.529,-0.553 1.004,-1.159 1.512,-1.732 0.169,-0.191 0.345,-0.412 0.567,-0.513 0.661,-0.302 0.718,-0.8 0.598,-1.427 -0.155,-0.803 -0.034,-0.886 0.752,-0.978 1.269,-0.149 2.526,-0.391 3.795,-0.537 1.363,-0.157 2.733,-0.256 4.102,-0.359 0.211,-0.016 0.431,0.088 0.647,0.136 0.014,0.075 0.029,0.151 0.043,0.226 -2.095,0.677 -4.189,1.355 -6.284,2.032 -0.004,0.087 -0.007,0.174 -0.011,0.261 0.228,0.063 0.455,0.179 0.683,0.18 1.368,0.007 2.736,-0.021 4.104,-0.015 0.311,0.001 0.621,0.09 0.932,0.138 -0.002,0.078 -0.004,0.156 -0.005,0.234 -1.259,0.259 -2.525,0.49 -3.776,0.785 -1.178,0.278 -2.338,0.633 -3.512,0.932 -0.452,0.115 -0.929,0.268 -1.38,0.23 -1.185,-0.098 -1.688,0.788 -2.512,1.508 0.414,0.113 0.673,0.235 0.935,0.245 0.832,0.032 1.665,0.036 2.497,0.025 1.534,-0.02 3.07,-0.13 4.6,-0.066 1.031,0.043 1.561,-0.576 2.141,-1.206 0.749,-0.814 1.525,-1.607 2.222,-2.464 0.528,-0.649 0.983,-1.364 1.402,-2.089 0.166,-0.286 0.146,-0.68 0.212,-1.03 1.05,-0.02 1.79,0.66 1.898,1.776 0.09,0.935 0.153,1.873 0.265,2.806 0.046,0.385 0.187,0.758 0.321,1.281 0.398,-0.332 0.649,-0.582 0.938,-0.774 0.897,-0.6 1.834,-1.141 2.706,-1.775 0.807,-0.586 1.566,-1.244 2.309,-1.912 0.156,-0.141 0.206,-0.464 0.204,-0.703 -0.004,-0.535 0.287,-0.719 0.752,-0.748 1.283,-0.081 2.569,-0.139 3.85,-0.244 0.633,-0.052 1.255,-0.216 1.888,-0.281 1.791,-0.183 3.583,-0.356 5.378,-0.502 0.889,-0.073 1.784,-0.095 2.677,-0.107 0.503,-0.007 1.007,0.054 1.458,0.082 0.398,0.783 0.226,1.429 -0.113,2.087 -0.332,0.643 -0.599,1.32 -0.903,1.978 -0.372,0.807 -0.27,1.006 0.75,1.241 -0.156,-1.056 0.581,-1.369 1.359,-1.701 0.783,-0.334 1.51,-0.798 2.294,-1.126 0.476,-0.199 1.009,-0.298 1.526,-0.358 1.111,-0.127 2.108,-0.892 3.295,-0.58 0.057,0.015 0.128,-0.007 0.188,-0.025 0.661,-0.199 0.972,0.044 0.946,0.758 -0.024,0.65 -0.37,1.112 -0.878,1.486 -0.374,0.276 -0.697,0.629 -1.094,0.86 -0.282,0.164 -0.781,0.358 -0.951,0.23 -0.361,-0.271 -0.127,-0.676 0.11,-1.007 0.229,-0.32 0.424,-0.663 0.542,-1.08 -0.838,0.277 -1.704,0.204 -2.405,0.805 -0.573,0.491 -1.347,0.74 -1.963,1.191 -0.478,0.351 -0.977,0.782 -1.239,1.294 -0.416,0.815 -0.057,1.303 0.882,1.425 0.295,0.038 0.596,0.028 0.891,0.061 1.599,0.179 3.16,0.093 4.757,-0.238 1.133,-0.235 1.842,-0.748 2.501,-1.633 0.859,-1.153 1.865,-2.197 2.817,-3.28 0.152,-0.173 0.349,-0.305 0.607,-0.525 0.284,0.419 0.576,0.781 0.79,1.184 0.253,0.476 0.55,0.664 1.079,0.426 0.247,-0.111 0.531,-0.163 0.803,-0.188 1.881,-0.173 3.766,-0.658 5.647,-0.081 0.574,0.176 1.147,0.458 1.624,0.818 0.7,0.528 0.812,1.297 0.422,2.171 1.724,-0.586 2.539,-2.159 3.836,-3.48 0.694,1.749 1.301,3.281 1.924,4.853 0.104,-0.08 0.221,-0.156 0.322,-0.249 0.855,-0.795 1.675,-1.632 2.573,-2.376 0.527,-0.437 1.211,-0.681 1.763,-1.093 0.698,-0.521 1.323,-1.138 2.005,-1.682 0.172,-0.137 0.44,-0.154 0.664,-0.226 0.069,0.231 0.251,0.506 0.183,0.684 -0.17,0.447 -0.379,0.925 -0.708,1.257 -0.899,0.905 -1.807,1.823 -2.827,2.58 -0.874,0.65 -1.558,1.452 -2.298,2.219 -0.142,0.148 -0.361,0.219 -0.532,0.343 -0.131,0.095 -0.361,0.238 -0.345,0.322 0.104,0.548 -0.28,0.614 -0.597,0.527 -0.249,-0.069 -0.54,-0.337 -0.626,-0.582 -0.365,-1.04 -0.633,-2.114 -0.99,-3.157 -0.278,-0.811 -0.54,-0.863 -1.261,-0.4 -1.5,0.965 -3.011,1.915 -4.505,2.889 -0.243,0.159 -0.402,0.449 -0.647,0.604 -0.151,0.096 -0.39,0.054 -0.59,0.073 0.025,-0.187 -0.02,-0.444 0.086,-0.548 0.51,-0.5 1.063,-0.957 1.596,-1.433 0.23,-0.206 0.451,-0.423 0.675,-0.634 -0.036,-0.03 -0.067,-0.06 -0.098,-0.09 z m -10.407,0.885 c 3.627,0.622 7.023,-0.02 10.197,-1.922 -0.158,-0.813 -0.646,-1.295 -1.549,-1.302 -1.845,-0.014 -3.656,0.095 -5.456,0.69 -1.412,0.467 -2.27,1.461 -3.192,2.534 z M 84.48,19.718 c -0.426,0.235 -0.71,0.391 -1.089,0.6 0.341,0.165 0.578,0.28 0.883,0.428 0.067,-0.337 0.122,-0.606 0.206,-1.028 z"
         id="path826" />
      <path
         d="m 55.395,15.777 c -0.327,0.082 -0.65,0.191 -0.982,0.242 -1.503,0.23 -3.004,0.514 -4.516,0.633 -0.746,0.058 -0.98,0.44 -1.296,0.987 -0.279,0.482 -0.742,0.88 -1.183,1.242 -1.98,1.624 -3.876,3.333 -5.615,5.216 -0.69,0.747 -1.444,1.433 -2.174,2.143 -0.056,0.055 -0.148,0.084 -0.228,0.1 -0.055,0.011 -0.118,-0.021 -0.302,-0.061 0.398,-0.505 0.735,-0.981 1.12,-1.412 0.836,-0.936 1.764,-1.799 2.526,-2.791 0.527,-0.687 1.172,-1.242 1.717,-1.89 0.746,-0.887 1.352,-1.892 2.01,-2.852 0.05,-0.073 0.036,-0.191 0.07,-0.402 -0.977,0.208 -1.875,0.428 -2.784,0.585 -1.065,0.184 -2.137,0.343 -3.213,0.441 -0.199,0.018 -0.599,-0.296 -0.607,-0.471 -0.016,-0.335 0.129,-0.715 0.316,-1.006 0.091,-0.141 0.426,-0.153 0.655,-0.174 2.063,-0.189 4.129,-0.354 6.19,-0.562 0.334,-0.034 0.648,-0.249 0.978,-0.361 0.123,-0.042 0.271,-0.058 0.396,-0.033 0.398,0.079 0.793,0.269 1.186,0.263 1.517,-0.026 3.032,-0.122 4.549,-0.168 0.379,-0.012 0.76,0.061 1.14,0.096 0.016,0.077 0.032,0.156 0.047,0.235 z"
         id="path828" />
      <path
         d="m 104.365,13.523 c 0.08,0.072 0.296,0.193 0.281,0.266 -0.052,0.249 -0.151,0.664 -0.293,0.692 -1.433,0.273 -2.526,1.284 -3.874,1.72 -0.139,0.045 -0.384,0.042 -0.451,-0.042 -0.097,-0.121 -0.163,-0.422 -0.09,-0.497 0.362,-0.367 0.727,-0.781 1.177,-0.998 0.794,-0.384 1.649,-0.641 2.482,-0.941 0.217,-0.078 0.449,-0.118 0.768,-0.2 z"
         id="path830" />
    </g>
  </g>
</svg>
